<svg width="640" height="259" viewBox="0 0 640 259" fill="none" xmlns="http://www.w3.org/2000/svg">
<path d="M299.906 248.91L299.855 248.863L299.794 248.897C299.398 248.687 298.916 248.958 298.533 248.672L298.548 248.677C298.189 248.427 297.726 248.73 297.372 248.457C294.422 248.049 291.523 247.372 288.664 246.573C285.08 245.572 281.51 244.514 278.026 243.179C274.554 241.849 271.094 240.504 267.791 238.788C267.475 238.527 267.033 238.541 266.711 238.294C257.664 233.946 249.353 228.475 241.706 221.979C238.204 219.005 234.845 215.885 231.71 212.527C231.415 212.142 231.078 211.794 230.754 211.434C230.299 210.953 229.843 210.472 229.388 209.991C229.165 209.692 228.935 209.399 228.68 209.126C224.775 204.808 221.307 200.149 218.161 195.266C213.854 188.58 210.201 181.549 207.268 174.135C205.01 168.429 203.245 162.586 201.736 156.654C201.69 156.475 201.726 156.275 201.725 156.084C201.427 155.77 201.772 155.311 201.479 154.996C201.218 154.227 201.093 153.433 201.023 152.628C200.751 152.275 201.06 151.812 200.801 151.458L200.804 151.47C200.523 151.099 200.807 150.627 200.584 150.246L200.62 150.162L200.559 150.094C200.305 149.717 200.574 149.252 200.352 148.869L200.389 148.783L200.328 148.711C200.085 148.317 200.325 147.843 200.122 147.442L200.159 147.384L200.113 147.331C199.818 146.864 200.125 146.308 199.89 145.833L199.93 145.773L199.883 145.719C199.576 145.183 199.911 144.562 199.661 144.018L199.705 143.943L199.649 143.875C199.359 143.32 199.67 142.688 199.423 142.128C199.421 142.019 199.421 141.911 199.419 141.802C199.098 141.1 199.469 140.328 199.198 139.621C199.191 139.426 199.184 139.231 199.176 139.036C198.883 138.243 199.238 137.394 198.96 136.6C199.098 136.181 199.034 135.765 198.944 135.35C198.703 134.295 198.834 133.226 198.846 132.166C198.877 129.311 198.698 126.454 198.944 123.601C199.034 123.185 199.101 122.769 198.96 122.351C199.238 121.557 198.883 120.707 199.176 119.915C199.183 119.72 199.191 119.525 199.198 119.33C199.469 118.623 199.1 117.851 199.419 117.149C199.421 117.039 199.422 116.931 199.423 116.821C199.67 116.261 199.36 115.63 199.649 115.076L199.705 115.008L199.661 114.933C199.91 114.389 199.578 113.769 199.883 113.232L199.931 113.177L199.892 113.115C200.126 112.64 199.819 112.086 200.112 111.621L200.16 111.567L200.123 111.506C200.327 111.106 200.085 110.634 200.328 110.24L200.388 110.167L200.352 110.079C200.575 109.698 200.308 109.234 200.558 108.857L200.618 108.787L200.584 108.7C200.811 108.319 200.522 107.845 200.804 107.473C200.91 106.276 201.17 105.109 201.481 103.951C201.772 103.636 201.432 103.18 201.724 102.866C202.03 100.951 202.603 99.1024 203.102 97.2333C204.07 93.6135 205.214 90.0557 206.589 86.5713C207.029 85.4549 207.486 84.3443 207.935 83.2317C208.105 82.9559 208.184 82.6334 208.372 82.3664C208.686 81.3892 209.019 80.4196 209.548 79.5322C209.801 79.2109 209.804 78.7789 210.03 78.4456C212.003 73.994 214.382 69.7607 216.941 65.6248C219.654 61.2403 222.628 57.0424 225.915 53.0671C226.156 52.7806 226.403 52.4992 226.608 52.1848C226.761 52.0159 226.915 51.8464 227.067 51.6775C227.315 51.3967 227.553 51.1083 227.768 50.8022C227.995 50.5549 228.223 50.3075 228.45 50.0596C228.711 49.787 228.931 49.4809 229.168 49.188C229.62 48.7073 230.072 48.2272 230.524 47.7466C230.845 47.386 231.186 47.0426 231.475 46.6536C233.318 44.6758 235.22 42.7568 237.208 40.9238C237.496 40.686 237.802 40.4703 238.066 40.204C238.549 39.7448 239.032 39.2856 239.515 38.827C239.824 38.6234 240.103 38.3811 240.375 38.1307C242.965 35.7765 245.718 33.6197 248.551 31.5742C254.07 27.5881 259.862 24.0322 265.988 21.0468C270.045 19.069 274.18 17.2759 278.419 15.6959C280.713 14.8407 283.058 14.1513 285.36 13.3322C287.539 12.5574 289.869 12.2083 292.131 11.6643C292.348 11.6125 292.552 11.5056 292.761 11.4246C293.111 11.1261 293.587 11.455 293.942 11.1874C294.269 11.2317 294.576 11.1969 294.835 10.9692C295.189 10.6688 295.659 10.9781 296.026 10.7434L296.003 10.7516C296.346 10.4259 296.82 10.7504 297.182 10.5163L297.157 10.5252C297.534 10.2058 298.029 10.5005 298.426 10.2804L298.479 10.3108L298.524 10.2697C298.904 9.99326 299.38 10.2678 299.771 10.0527L299.847 10.09L299.908 10.0299C300.298 9.77505 300.77 10.028 301.168 9.82185L301.236 9.8598L301.291 9.80604C301.729 9.51066 302.263 9.84083 302.708 9.58909L302.686 9.59668C303.222 9.26399 303.852 9.6087 304.399 9.35886L304.462 9.39871L304.517 9.35001C305.069 9.05526 305.701 9.36962 306.259 9.12357L306.308 9.16405L306.361 9.12737C307.056 8.78392 307.828 9.17544 308.53 8.8984L308.601 8.94584L308.667 8.89145C309.454 8.55685 310.309 8.94837 311.1 8.66122C311.29 8.77317 311.478 8.74281 311.665 8.65173C312.767 8.32473 313.917 8.72573 315.021 8.42909C315.594 8.57267 316.166 8.50942 316.737 8.41517C318.889 8.22859 321.04 8.22922 323.191 8.41454C323.762 8.50752 324.333 8.57267 324.907 8.42909C326.011 8.72573 327.161 8.32726 328.264 8.6511C328.451 8.74028 328.64 8.77001 328.831 8.66248C329.622 8.94711 330.475 8.56002 331.262 8.89018C331.371 8.89018 331.479 8.89081 331.588 8.89081C332.225 9.16026 332.937 8.80353 333.567 9.12547L333.623 9.16848L333.68 9.12674C334.235 9.36772 334.861 9.05906 335.411 9.34811L335.47 9.40187L335.537 9.36013C336.082 9.6087 336.709 9.26842 337.243 9.59415L337.223 9.5872C337.666 9.84273 338.199 9.51383 338.637 9.80351L338.697 9.86233L338.771 9.82249C339.234 10.0533 339.788 9.74026 340.236 10.0635L340.212 10.0546C340.582 10.2798 341.042 9.992 341.403 10.2652L341.454 10.3177L341.52 10.2842C341.911 10.5005 342.4 10.2083 342.774 10.5208L342.752 10.5132C343.111 10.7542 343.583 10.431 343.927 10.7478L343.907 10.7409C344.246 11.0141 344.766 10.5935 345.06 11.0413C355.728 13.429 365.982 16.9748 375.687 22.0348C382.589 25.6337 389.124 29.8089 395.211 34.6715C395.535 34.9296 395.893 35.1446 396.235 35.3793C396.579 35.5874 396.908 35.8151 397.158 36.1383C398.463 37.4374 399.898 38.5873 401.321 39.7505C401.742 40.0452 402.147 40.3564 402.451 40.7789C404.504 42.8263 406.555 44.8744 408.608 46.9218C408.968 47.1318 409.147 47.5043 409.403 47.8079C409.805 48.4467 410.366 48.9413 410.903 49.4575C411.273 49.6687 411.471 50.0311 411.699 50.3664C415.389 54.9488 419 59.585 422.151 64.5685C427.27 72.6626 431.399 81.2229 434.52 90.2727C435.821 94.0449 436.883 97.8874 437.883 101.747C438.358 102.028 437.904 102.568 438.206 102.897C438.225 103.209 438.107 103.543 438.354 103.819C438.807 104.109 438.377 104.632 438.659 104.968L438.653 104.949C438.965 105.291 438.637 105.764 438.891 106.118L438.886 106.1C439.19 106.448 438.876 106.917 439.115 107.277L439.107 107.255C439.416 107.635 439.131 108.126 439.346 108.523L439.314 108.577L439.355 108.624C439.63 109.012 439.366 109.495 439.576 109.895L439.54 109.955L439.588 110.006C439.892 110.439 439.547 110.977 439.814 111.416L439.808 111.398C440.101 111.866 439.811 112.424 440.042 112.902C440.049 113.012 440.057 113.122 440.064 113.233C440.323 113.7 440.04 114.241 440.268 114.712C440.278 114.834 440.288 114.955 440.297 115.076C440.545 115.557 440.278 116.108 440.506 116.591C440.395 116.781 440.437 116.966 440.527 117.15C440.804 117.773 440.477 118.459 440.73 119.084C440.739 119.284 440.748 119.484 440.757 119.684C441.041 120.472 440.697 121.314 440.965 122.103C440.852 122.451 440.894 122.796 440.985 123.139C441.224 124.339 441.034 125.552 441.096 126.758C441.119 127.209 441.024 127.67 441.201 128.109C441.049 129.02 441.049 129.93 441.201 130.84C440.976 132.004 441.155 133.18 441.092 134.348C441.07 134.759 441.189 135.182 440.992 135.579C440.577 141.551 439.915 147.491 438.704 153.362C435.867 167.118 430.897 180.024 423.584 192.044C419.44 198.855 414.633 205.145 409.4 211.133C409.102 211.548 408.79 211.949 408.375 212.258C406.477 214.151 404.579 216.044 402.681 217.937C402.481 218.312 402.101 218.488 401.792 218.743C397.897 222.089 393.96 225.378 389.766 228.356C386.031 231.009 382.13 233.406 378.165 235.669C375.269 237.322 372.193 238.691 369.123 240.049C365.281 241.748 361.368 243.216 357.391 244.55C352.666 246.134 347.85 247.345 342.952 248.247C342.812 248.272 342.688 248.386 342.556 248.458C342.201 248.728 341.739 248.426 341.38 248.677L341.396 248.673C341.014 248.957 340.535 248.685 340.14 248.895L340.074 248.859L340.021 248.911C339.627 249.177 339.146 248.921 338.743 249.13L338.688 249.094L338.638 249.136C338.183 249.439 337.633 249.116 337.169 249.358L337.09 249.317L337.023 249.374C336.557 249.656 336.007 249.357 335.533 249.589C335.415 249.598 335.296 249.608 335.177 249.617C334.703 249.87 334.158 249.596 333.68 249.821C333.565 249.827 333.45 249.833 333.334 249.839C332.779 250.123 332.148 249.806 331.589 250.057C331.399 249.947 331.214 249.986 331.03 250.071C330.321 250.369 329.55 250.018 328.839 250.284C328.489 250.178 328.144 250.222 327.801 250.314C326.853 250.597 325.86 250.238 324.913 250.518C323.876 250.403 322.842 250.465 321.808 250.546C320.579 250.709 319.351 250.711 318.122 250.546C317.088 250.465 316.053 250.403 315.018 250.518C314.07 250.237 313.076 250.598 312.128 250.313C311.786 250.222 311.443 250.174 311.095 250.285C310.459 250.033 309.766 250.345 309.132 250.084C308.871 249.995 308.609 249.936 308.342 250.057C307.781 249.806 307.15 250.123 306.594 249.838C306.479 249.832 306.363 249.827 306.248 249.821C305.77 249.596 305.224 249.87 304.751 249.617C304.634 249.608 304.517 249.598 304.4 249.589C303.925 249.358 303.373 249.656 302.905 249.374L302.84 249.316L302.763 249.358C302.298 249.116 301.746 249.44 301.29 249.135L301.241 249.095L301.188 249.13C300.783 248.921 300.299 249.179 299.906 248.91Z" fill="black"/>
<path d="M198.942 123.6C198.829 127.516 198.829 131.432 198.943 135.348C198.657 135.124 198.715 134.804 198.715 134.505C198.712 131.151 198.712 127.797 198.715 124.443C198.715 124.144 198.656 123.824 198.942 123.6Z" fill="#FCFCFC"/>
<path d="M323.19 8.41251C321.038 8.41251 318.887 8.41314 316.735 8.41314C317.308 7.95205 317.985 8.17089 318.596 8.20252C320.127 8.28031 321.681 7.8869 323.19 8.41251Z" fill="#FCFCFC"/>
<path d="M441.199 128.109C440.985 126.458 441.01 124.798 440.982 123.139C441.469 124.35 441.103 125.614 441.209 126.849C441.244 127.266 441.204 127.689 441.199 128.109Z" fill="#FCFCFC"/>
<path d="M440.989 135.578C441.023 133.996 440.975 132.412 441.198 130.839C441.106 132.418 441.466 134.016 440.989 135.578Z" fill="#FCFCFC"/>
<path d="M318.12 250.546C319.349 250.546 320.577 250.546 321.806 250.547C320.577 250.903 319.349 250.903 318.12 250.546Z" fill="#FCFCFC"/>
<path d="M315.019 8.42752C313.91 8.6508 312.785 8.63056 311.663 8.65016C312.753 8.14353 313.902 8.51987 315.019 8.42752Z" fill="#FCFCFC"/>
<path d="M328.262 8.64951C327.139 8.62864 326.015 8.65015 324.905 8.42814C326.023 8.51985 327.172 8.14604 328.262 8.64951Z" fill="#FCFCFC"/>
<path d="M324.91 250.519C325.862 250.302 326.831 250.314 327.799 250.315C326.864 250.783 325.872 250.44 324.91 250.519Z" fill="#FCFCFC"/>
<path d="M312.126 250.313C313.093 250.312 314.062 250.3 315.015 250.517C314.053 250.439 313.06 250.784 312.126 250.313Z" fill="#FCFCFC"/>
<path d="M311.098 8.65987C310.301 8.88061 309.483 8.8863 308.665 8.8901C309.435 8.37081 310.289 8.75158 311.098 8.65987Z" fill="#FCFCFC"/>
<path d="M331.259 8.88804C330.443 8.88424 329.627 8.87665 328.829 8.66034C329.637 8.74952 330.49 8.37318 331.259 8.88804Z" fill="#FCFCFC"/>
<path d="M440.962 122.103C440.754 121.308 440.748 120.496 440.754 119.684C441.23 120.455 440.886 121.297 440.962 122.103Z" fill="#FCFCFC"/>
<path d="M199.174 119.913C199.17 120.731 199.194 121.551 198.959 122.348C199.047 121.538 198.688 120.688 199.174 119.913Z" fill="#FCFCFC"/>
<path d="M198.96 136.599C199.195 137.396 199.172 138.217 199.176 139.034C198.689 138.259 199.048 137.409 198.96 136.599Z" fill="#FCFCFC"/>
<path d="M308.529 8.89618C307.818 9.08973 307.091 9.12894 306.359 9.12515C307.038 8.62737 307.805 8.96259 308.529 8.89618Z" fill="#FCFCFC"/>
<path d="M199.417 117.147C199.432 117.883 199.399 118.614 199.196 119.328C199.262 118.601 198.938 117.833 199.417 117.147Z" fill="#FCFCFC"/>
<path d="M328.837 250.284C329.554 250.078 330.288 250.046 331.028 250.071C330.335 250.533 329.567 250.219 328.837 250.284Z" fill="#FCFCFC"/>
<path d="M333.565 9.12327C332.897 9.12138 332.228 9.12264 331.586 8.88862C332.246 8.96831 332.956 8.62044 333.565 9.12327Z" fill="#FCFCFC"/>
<path d="M440.726 119.083C440.534 118.451 440.506 117.802 440.523 117.148C440.975 117.753 440.675 118.437 440.726 119.083Z" fill="#FCFCFC"/>
<path d="M408.372 212.257C408.714 211.882 409.056 211.507 409.398 211.132C409.31 211.739 408.935 212.084 408.372 212.257Z" fill="#FCFCFC"/>
<path d="M230.754 211.434C231.173 211.71 231.567 212.009 231.71 212.526C231.265 212.272 230.86 211.984 230.754 211.434Z" fill="#FCFCFC"/>
<path d="M231.474 46.6523C231.337 47.1729 230.943 47.4695 230.523 47.7453C230.627 47.1957 231.034 46.9091 231.474 46.6523Z" fill="#FCFCFC"/>
<path d="M402.448 40.7765C402.072 40.4337 401.695 40.0909 401.318 39.748C401.932 39.8309 402.278 40.2072 402.448 40.7765Z" fill="#FCFCFC"/>
<path d="M309.13 250.085C309.792 250.068 310.452 250.075 311.092 250.286C310.438 250.225 309.745 250.529 309.13 250.085Z" fill="#FCFCFC"/>
<path d="M306.258 9.12208C305.697 9.34345 305.107 9.34788 304.517 9.34851C305.045 8.87161 305.677 9.18976 306.258 9.12208Z" fill="#FCFCFC"/>
<path d="M304.399 9.35757C303.847 9.57389 303.267 9.5916 302.686 9.59476C303.198 9.09698 303.824 9.4145 304.399 9.35757Z" fill="#FCFCFC"/>
<path d="M337.241 9.59212C336.662 9.59149 336.086 9.56682 335.536 9.3581C336.108 9.41123 336.729 9.10067 337.241 9.59212Z" fill="#FCFCFC"/>
<path d="M199.882 113.23C199.894 113.809 199.86 114.38 199.659 114.931C199.712 114.361 199.411 113.746 199.882 113.23Z" fill="#FCFCFC"/>
<path d="M199.648 115.074C199.657 115.667 199.657 116.258 199.422 116.82C199.494 116.237 199.175 115.604 199.648 115.074Z" fill="#FCFCFC"/>
<path d="M335.409 9.34606C334.823 9.34606 334.238 9.33658 333.679 9.12469C334.257 9.18478 334.883 8.87612 335.409 9.34606Z" fill="#FCFCFC"/>
<path d="M199.422 142.126C199.659 142.688 199.659 143.28 199.648 143.873C199.174 143.343 199.495 142.709 199.422 142.126Z" fill="#FCFCFC"/>
<path d="M199.66 144.016C199.863 144.566 199.894 145.138 199.883 145.716C199.41 145.202 199.712 144.586 199.66 144.016Z" fill="#FCFCFC"/>
<path d="M306.592 249.839C307.186 249.822 307.777 249.818 308.339 250.058C307.757 249.988 307.125 250.299 306.592 249.839Z" fill="#FCFCFC"/>
<path d="M331.586 250.058C332.147 249.821 332.739 249.823 333.332 249.839C332.799 250.299 332.169 249.989 331.586 250.058Z" fill="#FCFCFC"/>
<path d="M226.606 52.1836C226.541 52.6074 226.28 52.8781 225.913 53.0659C225.948 52.6175 226.249 52.3784 226.606 52.1836Z" fill="#FCFCFC"/>
<path d="M227.767 50.7998C227.703 51.2267 227.428 51.4861 227.066 51.6752C227.106 51.2293 227.406 50.9896 227.767 50.7998Z" fill="#FCFCFC"/>
<path d="M411.697 50.364C411.432 50.061 411.166 49.758 410.9 49.4551C411.398 49.555 411.67 49.8523 411.697 50.364Z" fill="#FCFCFC"/>
<path d="M302.707 9.5876C302.258 9.80834 301.774 9.80518 301.29 9.80455C301.708 9.37255 302.229 9.62239 302.707 9.5876Z" fill="#FCFCFC"/>
<path d="M338.635 9.80139C338.153 9.80202 337.67 9.80455 337.221 9.58508C337.697 9.62303 338.218 9.37382 338.635 9.80139Z" fill="#FCFCFC"/>
<path d="M229.167 49.1865C229.1 49.6192 228.813 49.8696 228.449 50.0581C228.496 49.609 228.794 49.3668 229.167 49.1865Z" fill="#FCFCFC"/>
<path d="M409.401 47.8061C409.136 47.5107 408.871 47.2153 408.605 46.9199C409.087 47.0211 409.354 47.3152 409.401 47.8061Z" fill="#FCFCFC"/>
<path d="M340.234 10.0617C339.734 10.0516 339.234 10.0452 338.77 9.82069C339.263 9.87066 339.813 9.56896 340.234 10.0617Z" fill="#FCFCFC"/>
<path d="M238.065 40.2021C237.867 40.5462 237.643 40.8612 237.207 40.9219C237.383 40.5519 237.624 40.2565 238.065 40.2021Z" fill="#FCFCFC"/>
<path d="M199.89 145.831C200.105 146.31 200.119 146.818 200.112 147.329C199.661 146.886 199.936 146.335 199.89 145.831Z" fill="#FCFCFC"/>
<path d="M240.374 38.1289C240.182 38.4768 239.948 38.7753 239.514 38.8253C239.703 38.473 239.937 38.1757 240.374 38.1289Z" fill="#FCFCFC"/>
<path d="M397.155 36.136C396.848 35.883 396.54 35.63 396.232 35.377C396.738 35.3902 397.025 35.6679 397.155 36.136Z" fill="#FCFCFC"/>
<path d="M440.264 114.713C440.065 114.238 440.045 113.738 440.061 113.233C440.48 113.678 440.228 114.215 440.264 114.713Z" fill="#FCFCFC"/>
<path d="M337.167 249.359C337.636 249.148 338.133 249.124 338.636 249.136C338.203 249.585 337.662 249.319 337.167 249.359Z" fill="#FCFCFC"/>
<path d="M266.712 238.293C267.146 238.297 267.5 238.474 267.792 238.787C267.357 238.786 266.973 238.674 266.712 238.293Z" fill="#FCFCFC"/>
<path d="M439.811 111.416C439.591 110.969 439.579 110.488 439.585 110.006C440.023 110.418 439.766 110.941 439.811 111.416Z" fill="#FCFCFC"/>
<path d="M301.289 249.135C301.793 249.123 302.292 249.145 302.762 249.359C302.266 249.319 301.723 249.586 301.289 249.135Z" fill="#FCFCFC"/>
<path d="M302.903 249.374C303.414 249.357 303.92 249.374 304.398 249.589C303.896 249.546 303.349 249.814 302.903 249.374Z" fill="#FCFCFC"/>
<path d="M335.531 249.589C336.008 249.379 336.512 249.357 337.021 249.375C336.578 249.813 336.033 249.549 335.531 249.589Z" fill="#FCFCFC"/>
<path d="M401.789 218.742C402.085 218.474 402.382 218.205 402.678 217.937C402.585 218.43 402.287 218.696 401.789 218.742Z" fill="#FCFCFC"/>
<path d="M333.679 249.821C334.159 249.61 334.665 249.599 335.176 249.617C334.725 250.036 334.181 249.779 333.679 249.821Z" fill="#FCFCFC"/>
<path d="M200.11 111.618C200.118 112.128 200.103 112.634 199.89 113.112C199.934 112.61 199.662 112.061 200.11 111.618Z" fill="#FCFCFC"/>
<path d="M440.038 112.902C439.802 112.426 439.8 111.912 439.805 111.398C440.278 111.838 439.978 112.398 440.038 112.902Z" fill="#FCFCFC"/>
<path d="M440.503 116.591C440.272 116.108 440.284 115.592 440.295 115.076C440.716 115.533 440.449 116.084 440.503 116.591Z" fill="#FCFCFC"/>
<path d="M210.028 78.4443C210.028 78.8776 209.866 79.2394 209.546 79.531C209.543 79.0958 209.659 78.7144 210.028 78.4443Z" fill="#FCFCFC"/>
<path d="M228.68 209.126C229.039 209.314 229.321 209.564 229.388 209.991C229.024 209.807 228.728 209.568 228.68 209.126Z" fill="#FCFCFC"/>
<path d="M304.749 249.617C305.26 249.597 305.766 249.611 306.246 249.821C305.744 249.779 305.2 250.037 304.749 249.617Z" fill="#FCFCFC"/>
<path d="M439.112 107.277C438.875 106.916 438.89 106.506 438.883 106.1C439.308 106.424 439.089 106.874 439.112 107.277Z" fill="#FCFCFC"/>
<path d="M438.888 106.117C438.647 105.76 438.661 105.352 438.65 104.948C439.08 105.266 438.854 105.718 438.888 106.117Z" fill="#FCFCFC"/>
<path d="M438.657 104.967C438.389 104.628 438.483 104.193 438.352 103.818C438.895 104.083 438.605 104.571 438.657 104.967Z" fill="#FCFCFC"/>
<path d="M201.722 102.864C201.737 103.248 201.769 103.635 201.479 103.949C201.53 103.581 201.329 103.156 201.722 102.864Z" fill="#FCFCFC"/>
<path d="M293.941 11.1871C293.578 11.4179 293.176 11.4565 292.76 11.4243C293.087 11.0144 293.54 11.2275 293.941 11.1871Z" fill="#FCFCFC"/>
<path d="M345.057 11.0388C344.681 10.906 344.245 11.0047 343.904 10.7384C344.302 10.7858 344.788 10.4968 345.057 11.0388Z" fill="#FCFCFC"/>
<path d="M296.025 10.7424C295.658 10.9771 295.25 10.9929 294.834 10.9682C295.166 10.5527 295.617 10.7601 296.025 10.7424Z" fill="#FCFCFC"/>
<path d="M343.925 10.7448C343.52 10.7302 343.109 10.7498 342.749 10.5095C343.152 10.5354 343.604 10.3096 343.925 10.7448Z" fill="#FCFCFC"/>
<path d="M297.181 10.5149C296.82 10.754 296.407 10.7331 296.002 10.7502C296.322 10.3056 296.776 10.5358 297.181 10.5149Z" fill="#FCFCFC"/>
<path d="M438.204 102.895C438.097 102.512 437.989 102.129 437.881 101.746C438.44 102.003 438.139 102.501 438.204 102.895Z" fill="#FCFCFC"/>
<path d="M298.425 10.2786C298.032 10.5183 297.592 10.5063 297.156 10.5234C297.505 10.0559 297.995 10.3229 298.425 10.2786Z" fill="#FCFCFC"/>
<path d="M208.371 82.3643C208.307 82.6938 208.23 83.017 207.933 83.2295C207.909 82.8557 207.995 82.5369 208.371 82.3643Z" fill="#FCFCFC"/>
<path d="M341.401 10.2628C340.991 10.2628 340.58 10.2779 340.21 10.0521C340.617 10.0648 341.061 9.86681 341.401 10.2628Z" fill="#FCFCFC"/>
<path d="M301.167 9.82077C300.771 10.0371 300.34 10.0339 299.907 10.0289C300.272 9.62849 300.74 9.84354 301.167 9.82077Z" fill="#FCFCFC"/>
<path d="M341.378 248.678C341.741 248.453 342.147 248.452 342.553 248.459C342.221 248.849 341.778 248.648 341.378 248.678Z" fill="#FCFCFC"/>
<path d="M298.533 248.671C298.967 248.67 299.401 248.667 299.794 248.896C299.367 248.864 298.89 249.104 298.533 248.671Z" fill="#FCFCFC"/>
<path d="M340.138 248.896C340.529 248.671 340.961 248.67 341.393 248.673C341.037 249.102 340.564 248.867 340.138 248.896Z" fill="#FCFCFC"/>
<path d="M299.906 248.91C300.347 248.903 300.786 248.901 301.186 249.13C300.753 249.096 300.273 249.328 299.906 248.91Z" fill="#FCFCFC"/>
<path d="M338.74 249.13C339.14 248.904 339.578 248.903 340.018 248.912C339.651 249.326 339.173 249.097 338.74 249.13Z" fill="#FCFCFC"/>
<path d="M200.121 147.441C200.337 147.841 200.338 148.274 200.328 148.71C199.931 148.34 200.149 147.871 200.121 147.441Z" fill="#FCFCFC"/>
<path d="M342.771 10.5184C342.341 10.5064 341.906 10.5146 341.518 10.2825C341.943 10.3167 342.423 10.0649 342.771 10.5184Z" fill="#FCFCFC"/>
<path d="M200.351 148.868C200.564 149.252 200.567 149.671 200.558 150.093C200.169 149.738 200.372 149.284 200.351 148.868Z" fill="#FCFCFC"/>
<path d="M200.582 150.244C200.804 150.626 200.804 151.047 200.802 151.469C200.387 151.122 200.607 150.661 200.582 150.244Z" fill="#FCFCFC"/>
<path d="M200.799 151.456C201.024 151.818 201.028 152.221 201.022 152.626C200.632 152.297 200.834 151.854 200.799 151.456Z" fill="#FCFCFC"/>
<path d="M201.479 154.995C201.775 155.309 201.737 155.7 201.724 156.084C201.328 155.791 201.53 155.364 201.479 154.995Z" fill="#FCFCFC"/>
<path d="M439.572 109.894C439.348 109.497 439.347 109.06 439.352 108.623C439.771 108.987 439.543 109.462 439.572 109.894Z" fill="#FCFCFC"/>
<path d="M200.326 110.237C200.337 110.672 200.334 111.103 200.122 111.502C200.148 111.074 199.932 110.607 200.326 110.237Z" fill="#FCFCFC"/>
<path d="M200.556 108.855C200.567 109.276 200.561 109.694 200.35 110.076C200.371 109.662 200.17 109.209 200.556 108.855Z" fill="#FCFCFC"/>
<path d="M200.802 107.472C200.804 107.894 200.805 108.317 200.582 108.699C200.605 108.281 200.393 107.82 200.802 107.472Z" fill="#FCFCFC"/>
<path d="M299.77 10.0518C299.38 10.2719 298.951 10.2675 298.523 10.2687C298.88 9.85697 299.346 10.0727 299.77 10.0518Z" fill="#FCFCFC"/>
<path d="M439.343 108.523C439.104 108.13 439.113 107.691 439.104 107.255C439.56 107.607 439.302 108.093 439.343 108.523Z" fill="#FCFCFC"/>
<path d="M297.372 248.457C297.779 248.45 298.186 248.45 298.549 248.677C298.148 248.647 297.704 248.85 297.372 248.457Z" fill="#FCFCFC"/>
<path d="M241.823 206.333C237.422 202.071 233.537 197.366 230.073 192.331C213.414 168.12 207.08 141.405 211.516 112.389C218.222 68.5279 250.733 33.1737 293.861 22.8178C354.303 8.30444 412.549 45.565 426.606 103.766C436.361 144.155 422.179 186.91 390.222 213.527C389.87 213.82 389.487 214.074 389.119 214.347C388.809 213.922 389.107 213.537 389.214 213.15C389.654 211.556 389.623 209.97 389.202 208.381C389.038 207.76 388.705 207.247 388.16 206.915C386.613 205.974 384.988 205.388 383.13 205.834C382.123 206.076 381.951 205.873 382.275 204.864C382.769 203.326 383.266 201.817 382.713 200.158C381.906 197.736 378.507 195.386 375.97 195.609C375.157 195.681 374.398 195.946 373.732 196.442C373.238 196.808 372.759 197.189 372.297 197.595C372.046 197.817 371.769 198.142 371.401 197.963C371.052 197.792 371.104 197.376 371.072 197.038C370.73 193.358 368.507 191.187 364.822 190.941C364.477 190.919 364.133 190.893 363.788 190.876C362.131 190.794 362.163 190.785 361.594 189.161C360.023 184.671 357.98 180.454 354.497 177.077C353.041 175.665 351.366 174.615 349.486 173.885C346.029 172.543 342.865 173.281 339.883 175.272C339.284 175.673 338.796 176.255 338.052 176.427C337.493 176.195 337.216 175.656 336.807 175.261C329.855 168.533 322.848 161.863 315.845 155.188C311.566 151.11 307.296 147.021 303.051 142.907C298.254 138.259 293.42 133.65 288.61 129.016C283.44 124.038 278.229 119.103 273.059 114.125C269.022 110.238 264.98 106.355 260.932 102.48C257.606 99.2959 254.268 96.1233 250.938 92.9431C247.134 89.3106 243.384 85.6219 239.535 82.0413C236.893 79.5834 234.459 76.9086 231.692 74.5816C230.752 73.7903 230.738 73.7562 230.103 74.8163C222.79 87.0222 217.986 100.123 216.005 114.235C215.734 116.172 215.431 118.102 215.35 120.061C215.317 120.884 215.551 121.545 216.169 122.111C220.697 126.261 225.055 130.589 229.509 134.816C232.933 138.067 236.302 141.379 239.724 144.633C243.84 148.547 247.892 152.527 252.046 156.401C254.066 158.286 256.027 160.235 258.021 162.146C260.874 164.881 263.699 167.653 266.579 170.357C271.196 174.693 275.643 179.207 280.347 183.449C280.545 183.627 280.782 183.775 280.859 184.056C280.877 184.424 280.685 184.716 280.51 185.014C278.159 188.994 277.364 193.383 277.169 197.915C277.033 201.074 277.244 204.206 278.282 207.232C278.479 207.804 278.422 208.314 277.816 208.598C276.219 209.348 274.983 210.544 273.755 211.769C272.794 212.727 272.353 212.613 271.887 211.345C270.759 208.279 270.22 205.028 269.037 201.987C267.812 198.835 265.742 196.473 262.241 195.708C260.761 195.384 259.324 195.565 257.946 196.105C256.276 196.759 255.485 198.32 255.799 200.236C256.086 201.984 256.635 203.664 257.248 205.322C257.368 205.646 257.533 205.956 257.611 206.292C257.718 206.749 258.176 207.388 257.63 207.632C257.145 207.849 256.862 207.135 256.581 206.743C255.577 205.338 254.604 203.911 253.511 202.57C251.217 199.754 248.449 199.393 245.541 201.524C244.049 202.617 242.834 203.902 242.309 205.729C242.235 205.996 242.106 206.23 241.823 206.333Z" fill="#5EA9B7"/>
<path d="M337.778 176.357C339.983 174.493 342.381 173.016 345.369 172.923C348.828 172.817 351.702 174.277 354.167 176.557C358.019 180.12 360.261 184.665 361.816 189.585C362.044 190.305 362.22 190.623 363.113 190.559C367.122 190.276 370.123 192.266 371.015 195.602C371.217 196.354 371.033 197.115 371.255 198.123C374.063 194.493 377.246 194.666 380.569 197.02C383.12 198.827 383.437 200.757 382.137 205.791C383.218 205.27 384.294 205.218 385.392 205.481C389.563 206.48 390.251 208.887 389.251 213.375C389.177 213.708 389.025 214.024 388.91 214.348C386.463 216.493 383.862 218.43 381.09 220.136C380.9 219.617 381.345 219.382 381.585 219.068C382.934 217.299 384.433 215.643 385.594 213.734C386.141 212.837 386.48 211.87 386.536 210.807C386.576 210.042 386.348 209.456 385.599 209.135C384.843 208.812 384.142 208.53 383.342 209.14C381.581 210.481 380.291 212.264 378.793 213.85C377.974 214.716 377.221 215.64 376.188 216.266C375.173 216.882 374.168 216.834 373.419 216.155C372.663 215.469 372.512 214.501 373.107 213.416C374.089 211.627 375.42 210.073 376.59 208.41C377.655 206.896 378.574 205.301 379.285 203.597C379.973 201.946 379.704 200.709 378.544 199.739C376.754 198.241 375.274 198.349 373.759 200.134C371.722 202.536 369.803 205.03 368.017 207.626C367.088 208.977 366.326 209.382 365.429 208.972C364.569 208.577 364.191 207.369 364.549 206.011C364.893 204.707 365.502 203.503 366.044 202.275C366.741 200.693 367.458 199.118 367.681 197.38C367.868 195.914 367.115 194.732 365.724 194.262C364.722 193.924 363.692 193.88 362.65 193.945C361.834 193.996 361.341 194.496 360.932 195.143C359.862 196.84 359.057 198.666 358.303 200.514C357.42 202.683 356.564 204.862 355.682 207.031C355.329 207.899 355.419 208.547 356.226 209.127C357.123 209.771 357.347 210.633 356.956 211.414C356.556 212.216 355.591 212.547 354.556 212.221C353.837 211.996 353.303 211.533 352.823 210.95C351.635 209.509 351.01 207.748 350.032 206.189C348.732 204.118 348.443 204.012 346.283 205.125C345.702 205.424 345.141 205.757 344.641 206.183C343.625 207.05 343.239 208.111 343.425 209.462C343.817 212.305 345.45 214.569 346.819 216.954C347.584 218.284 348.405 219.582 349.179 220.908C350.068 222.433 350.535 224.068 350.687 225.811C350.724 226.766 351.003 227.697 350.973 228.659C350.992 230.702 350.859 232.725 350.192 234.679C349.047 234.979 347.902 235.279 346.757 235.58C346.471 235.121 346.73 234.685 346.842 234.26C347.538 231.63 347.42 228.948 347.247 226.286C347.102 224.041 345.841 222.191 344.696 220.341C343.871 219.011 342.984 217.718 342.208 216.357C341.411 214.705 340.472 213.123 340.038 211.299C339.113 207.411 340.017 204.905 343.295 202.637C344.407 201.868 345.629 201.327 346.913 200.898C348.932 200.222 350.513 200.882 351.834 202.419C352.253 202.906 352.556 203.493 353.057 203.928C354.132 202.437 354.189 201.865 353.237 200.497C349.762 195.499 345.983 190.818 340.763 187.448C337.421 185.291 333.762 184.389 329.906 184.049C328.384 183.914 326.859 183.658 325.317 183.814C319.542 183.637 313.869 184.324 308.285 185.788C307.581 185.973 306.891 186.198 306.192 186.389C304.185 186.94 302.357 187.904 300.633 188.896C302.184 189.558 302.945 190.931 303.363 192.569C303.757 195.408 302.378 197.306 300.08 198.702C299.125 199.283 298.079 199.642 296.986 199.86C295.053 200.081 293.315 199.708 292.011 198.139C291.597 197.64 291.325 197.813 291.038 198.228C288.505 201.877 286.548 205.789 285.566 210.151C285.373 211.008 285.847 211.62 286.275 212.252C287.241 213.677 287.374 215.153 286.585 216.698C285.807 218.461 284.603 219.944 283.456 221.465C282.816 222.23 282.406 223.146 281.821 223.947C281.493 224.396 281.59 224.642 282.162 224.663C282.695 224.682 283.232 224.635 283.762 224.708C285.42 224.934 286.315 226.195 285.907 227.818C285.562 229.191 284.955 230.468 284.274 231.708C284.01 232.067 283.976 232.58 283.537 232.823C281.555 232.313 279.704 231.444 277.793 230.738C277.913 228.978 277.574 227.237 277.586 225.47C277.597 223.792 278.023 222.392 279.057 221.122C280.318 219.575 281.581 218.027 282.649 216.336C283.628 214.785 283.594 214.505 282.404 213.106C282.051 212.691 281.633 212.359 281.178 212.068C279.738 211.149 278.577 211.24 277.315 212.405C275.789 213.813 274.414 215.363 273.1 216.968C272.735 217.415 272.365 217.86 271.895 218.198C271.23 218.676 270.528 218.701 269.872 218.192C269.202 217.673 269.012 216.931 269.461 216.249C270.018 215.401 269.793 214.717 269.43 213.896C268.232 211.185 267.523 208.309 266.735 205.462C266.242 203.679 265.723 201.915 264.463 200.481C263.163 199.003 261.561 198.421 259.611 198.765C259.011 198.871 258.753 199.18 258.735 199.771C258.706 200.674 258.993 201.509 259.233 202.357C259.712 204.056 260.555 205.634 260.869 207.388C261.168 209.062 260.487 210.539 259.058 211.242C257.681 211.921 256.369 211.601 255.171 210.225C253.806 208.658 252.802 206.827 251.53 205.189C249.595 202.695 248.37 202.604 246.117 204.867C244.759 206.231 244.711 206.676 245.707 208.375C246.173 209.171 246.699 209.927 247.189 210.707C247.403 211.048 247.765 211.355 247.589 211.841C246.456 211.394 245.803 210.355 244.913 209.613C243.726 208.624 242.704 207.438 241.611 206.336C242.101 203.863 243.685 202.208 245.706 200.888C248.37 199.148 251.253 199.592 253.296 202.075C254.026 202.963 254.713 203.888 255.391 204.816C256.045 205.711 256.66 206.634 257.423 207.488C256.828 205.633 256.214 203.785 255.645 201.923C255.32 200.858 255.068 199.764 255.282 198.641C255.678 196.573 257.406 195.385 260.14 195.265C264.002 195.096 267.605 197.588 269.033 201.664C270.095 204.694 270.891 207.818 271.843 210.887C272.36 212.553 272.401 212.546 273.578 211.335C274.732 210.147 275.895 208.965 277.486 208.368C278.089 208.142 277.931 207.808 277.803 207.38C275.893 200.951 276.344 194.591 278.39 188.285C278.89 186.745 279.718 185.36 280.553 183.984C280.955 182.522 282.165 181.75 283.237 180.867C283.766 180.432 284.382 180.121 284.991 179.806C288.545 178.119 292.039 178.75 295.468 180.169C297.094 180.842 298.749 181.551 300.114 182.679C301.459 183.79 302.772 184.069 304.285 183.148C309.66 181.353 315.161 180.271 320.843 180.174C324.745 180.107 328.648 180.017 332.524 180.609C333.176 180.708 333.628 180.471 333.994 179.952C334.772 178.848 335.791 177.965 336.734 177.015C337.03 176.718 337.31 176.383 337.778 176.357Z" fill="#46443C"/>
<path d="M350.63 225.655C350.313 222.238 348.231 219.629 346.606 216.802C345.296 214.523 343.75 212.354 343.363 209.635C343.128 207.984 343.512 206.642 344.937 205.745C349.027 203.169 348.965 203.341 351.074 207.084C351.806 208.383 352.376 209.776 353.378 210.912C353.894 211.498 354.465 212.004 355.276 212.117C356.086 212.23 356.75 211.969 357.048 211.18C357.344 210.397 357.102 209.714 356.333 209.339C355.251 208.81 355.095 208.143 355.583 207.025C356.84 204.152 357.948 201.214 359.157 198.319C359.554 197.369 360.04 196.449 360.558 195.558C361.824 193.377 365.262 192.909 367.183 194.594C368.408 195.668 368.412 196.964 368.023 198.379C367.412 200.603 366.354 202.65 365.496 204.776C365.21 205.484 364.85 206.181 364.836 206.961C364.822 207.771 365.064 208.592 365.883 208.827C366.669 209.052 367.295 208.612 367.769 207.864C369.617 204.94 371.745 202.219 374.07 199.663C375.569 198.016 376.407 197.961 378.407 199.127C380.041 200.079 380.494 201.232 379.956 203.101C379.295 205.39 377.913 207.287 376.589 209.21C375.785 210.378 374.925 211.508 374.094 212.658C373.755 213.126 373.478 213.626 373.318 214.187C373.108 214.929 373.311 215.566 373.865 216.061C374.399 216.536 375.043 216.59 375.699 216.314C376.569 215.948 377.213 215.285 377.857 214.624C379.677 212.756 381.315 210.721 383.254 208.958C384.238 208.062 385.067 208.524 385.994 208.859C386.87 209.175 387.048 209.847 387.055 210.687C387.068 212.103 386.515 213.323 385.719 214.41C384.295 216.355 382.778 218.231 381.299 220.137C375.631 224.149 369.551 227.41 363.144 230.075C361.562 230.551 359.886 230.19 358.294 230.629C357.82 230.76 357.53 230.39 357.308 230.014C356.882 229.293 356.412 228.604 355.816 228.011C354.606 227.028 353.256 226.364 351.689 226.19C351.268 226.143 350.842 226.112 350.63 225.655Z" fill="#FEFEFE"/>
<path d="M342.625 216.179C343.824 218.084 345.073 219.959 346.208 221.901C348.576 225.95 348.129 230.263 347.266 234.596C347.2 234.93 347.069 235.251 346.968 235.578C339.875 237.439 332.666 238.529 325.338 238.821C323.89 238.973 322.44 238.894 320.991 238.864C320.71 238.174 321.349 238.234 321.653 238.15C322.502 237.915 323.371 237.752 324.223 237.525C324.97 237.327 325.687 237.052 326.323 236.609C327.291 235.935 327.361 235.31 326.575 234.429C325.021 232.688 323.072 231.429 321.084 230.295C319.577 229.436 318.649 228.417 318.572 226.654C318.545 226.01 318.403 225.354 318.225 224.734C317.815 223.311 318.359 222.439 319.567 221.692C321.558 220.461 323.571 219.276 325.646 218.192C328.591 216.841 331.632 215.844 334.902 215.691C335.569 215.858 336.232 215.838 336.89 215.636C338.859 215.216 340.76 215.511 342.625 216.179Z" fill="#FEFEFE"/>
<path d="M318.54 15.3023C316.477 15.2763 313.143 15.4813 309.811 15.7437C309.24 15.7887 308.679 15.8317 308.132 15.5312C307.52 15.1954 307.17 14.7235 307.317 14.0423C307.457 13.3902 307.77 12.7912 308.553 12.7153C310.004 12.5743 311.457 12.413 312.913 12.3409C343.719 10.8109 371.138 19.7222 394.919 39.3461C411.5 53.029 423.207 70.2146 430.371 90.4812C430.766 91.6007 431.152 92.7266 431.483 93.8664C431.831 95.0662 431.42 95.9466 430.475 96.1971C429.515 96.4514 428.882 96.0282 428.485 94.7885C425.445 85.2694 421.309 76.2563 415.888 67.8573C402.956 47.8229 385.49 33.1729 363.48 23.9568C354.977 20.3958 346.144 17.9727 337.04 16.5761C331.34 15.702 325.594 15.2978 318.54 15.3023Z" fill="#FEFEFE"/>
<path d="M314.577 238.824C308.271 238.623 302.057 237.712 295.907 236.344C293.928 235.904 291.972 235.355 290.006 234.855C289.691 234.416 289.962 234.042 290.172 233.695C290.844 232.586 291.106 231.357 291.282 230.101C291.725 226.948 291.955 223.795 291.199 220.651C291.285 220.264 291.587 220.09 291.919 219.98C293.773 219.364 295.65 218.836 297.592 218.577C297.824 218.546 298.05 218.582 298.267 218.667C299.59 219.767 300.763 219.284 301.89 218.317C303.782 218.341 305.643 218.519 307.373 219.376C309.56 220.573 311.973 221.238 314.232 222.272C315.237 222.732 315.84 223.289 315.973 224.434C316.171 226.141 316.428 227.846 316.863 229.515C317.022 230.122 316.832 230.633 316.538 231.149C315.8 232.444 315.036 233.726 314.557 235.151C314.074 236.587 314.423 237.263 315.83 237.825C316.396 238.051 317.274 237.847 317.413 238.793C316.47 238.984 315.524 238.922 314.577 238.824Z" fill="#FEFEFE"/>
<path d="M247.801 211.839C246.984 210.549 246.125 209.283 245.362 207.961C244.617 206.669 244.732 206.1 245.74 204.975C245.766 204.947 245.79 204.917 245.816 204.888C248.34 202.16 249.845 202.212 252.088 205.17C253.315 206.788 254.393 208.524 255.684 210.085C257.022 211.703 258.867 211.7 260.151 210.236C260.793 209.504 261.035 208.64 260.855 207.672C260.625 206.424 260.132 205.257 259.743 204.058C259.425 203.077 259.062 202.105 258.829 201.103C258.276 198.726 258.231 198.332 261.12 198.391C264.008 198.45 265.549 200.498 266.451 202.942C267.295 205.231 267.854 207.624 268.549 209.97C269.027 211.584 269.541 213.19 270.37 214.665C270.619 215.109 270.572 215.393 270.24 215.768C269.617 216.47 269.391 217.26 270.182 218.002C270.81 218.592 271.645 218.402 272.464 217.491C273.925 215.865 275.257 214.123 276.845 212.611C279.303 210.271 282.7 211.127 283.89 214.372C284.08 214.889 283.816 215.269 283.612 215.662C282.755 217.303 281.696 218.849 280.393 220.125C278.215 222.26 277.866 224.819 278.134 227.623C278.218 228.501 278.285 229.38 278.399 230.253C278.446 230.607 278.354 230.752 278.005 230.737C275.521 229.622 272.991 228.606 270.602 227.287C270.355 226.862 270.66 226.566 270.845 226.241C272.478 223.374 271.778 220.257 268.937 218.552C265.289 216.364 261.509 216.432 257.728 218.293C257.353 218.477 257.025 218.773 256.57 218.754C255.979 218.631 255.588 218.193 255.136 217.851C255.101 217.298 255.614 217.215 255.918 216.971C256.705 216.338 256.89 215.53 256.636 214.608C256.398 213.743 255.288 212.89 254.384 212.903C253.446 212.917 252.842 213.444 252.476 214.3C252.313 214.68 252.354 215.248 251.731 215.298C250.378 214.193 248.971 213.151 247.801 211.839Z" fill="#FEFEFE"/>
<path d="M311.813 245.633C296.711 244.532 282.323 240.734 268.713 234.067C250.096 224.947 234.959 211.8 223.237 194.719C222.347 193.422 221.525 192.078 220.661 190.762C220.13 189.955 220.088 189.155 220.825 188.489C221.648 187.746 222.406 188.207 223.052 188.82C223.38 189.13 223.616 189.543 223.864 189.928C237.031 210.361 254.831 225.245 277.349 234.445C288.42 238.968 299.956 241.558 311.874 242.469C312.805 242.54 313.53 242.87 313.822 243.788C314.038 244.47 313.598 244.947 313.128 245.375C312.741 245.728 312.28 245.679 311.813 245.633Z" fill="#FEFEFE"/>
<path d="M291.365 220.6C292.445 223.434 291.976 226.34 291.769 229.236C291.625 231.253 290.942 233.092 290.005 234.856C287.902 234.233 285.773 233.687 283.749 232.821C283.89 232.422 283.882 231.963 284.219 231.642C285.289 231.406 285.784 230.684 286.004 229.656C286.388 227.857 286.46 226.026 286.618 224.205C286.722 223.007 285.95 222.338 284.928 221.88C284.456 221.669 283.849 221.724 283.526 221.202C284.595 219.735 285.757 218.33 286.529 216.668C288.099 217.056 289.366 217.963 290.542 219.019C291.008 219.438 291.319 219.954 291.365 220.6Z" fill="#77745E"/>
<path d="M256.569 218.754C260.074 215.8 266.882 215.953 270.196 219.059C272.248 220.983 272.629 224.006 271.123 226.407C270.942 226.696 270.775 226.993 270.602 227.287C265.773 224.965 261.233 222.158 256.84 219.103C256.724 219.023 256.659 218.872 256.569 218.754Z" fill="#77745E"/>
<path d="M435.761 112.406C435.763 113.649 435.378 114.057 434.22 114.175C433.175 114.281 432.75 113.642 432.627 112.776C432.168 109.548 431.586 106.343 430.947 103.147C430.834 102.583 430.845 102.025 430.986 101.444C431.138 100.82 431.355 100.379 432.06 100.315C432.801 100.247 433.371 100.512 433.607 101.215C433.874 102.01 434.048 102.837 434.243 103.655C434.939 106.567 435.389 109.523 435.761 112.406Z" fill="#FDFDFD"/>
<path d="M355.922 227.728C356.577 228.158 357.043 228.796 357.326 229.469C357.684 230.323 358.158 230.455 358.966 230.22C360.338 229.819 361.749 230.067 363.145 230.076C359.03 231.975 354.744 233.401 350.404 234.678C350.099 234.036 350.462 233.44 350.56 232.836C350.785 231.447 350.9 230.056 350.851 228.651C351.405 228.813 351.92 228.696 352.474 228.554C353.618 228.26 354.644 227.453 355.922 227.728Z" fill="#DBD9CE"/>
<path d="M214.31 178.582C214.502 177.937 214.623 177.201 215.39 176.963C216.118 176.738 216.818 176.956 217.18 177.635C218.061 179.289 218.882 180.975 219.69 182.665C219.98 183.271 219.642 183.815 219.239 184.222C218.821 184.645 218.265 184.818 217.664 184.539C217.173 184.311 216.714 184.05 216.438 183.546C215.647 182.101 215.013 180.585 214.42 179.051C214.367 178.911 214.349 178.756 214.31 178.582Z" fill="#FCFCFC"/>
<path d="M251.731 215.297C252.161 215.131 252.007 214.706 252.105 214.405C252.459 213.309 253.308 212.582 254.333 212.565C255.421 212.546 256.657 213.498 256.988 214.61C257.306 215.677 256.862 216.772 255.887 217.382C255.637 217.538 255.273 217.517 255.136 217.85C254.001 216.999 252.866 216.148 251.731 215.297Z" fill="#77745E"/>
<path d="M314.577 238.823C315.51 238.556 316.507 239.016 317.423 238.57C318.584 238.019 319.74 238.072 320.893 238.598C322.357 239.017 323.866 238.555 325.338 238.82C321.751 239.093 318.165 239.098 314.577 238.823Z" fill="#E0E0DF"/>
<path d="M337.988 176.358C336.615 177.745 335.155 179.058 334.072 180.698C333.743 181.197 333.364 181.029 332.967 180.972C328.627 180.341 324.262 180.276 319.896 180.498C314.638 180.765 309.514 181.804 304.513 183.446C302.899 182.09 301.425 180.574 299.918 179.11C297.031 176.306 294.034 173.616 291.217 170.738C290.04 169.535 288.762 168.427 287.512 167.298C285 165.028 281.915 165.056 279.791 167.26C278.325 168.781 277.936 171.237 278.905 173.127C279.451 174.192 280.188 175.117 281.135 175.874C282.518 176.977 283.682 178.311 284.929 179.557C285.065 179.694 285.162 179.86 285.182 180.061C283.423 181.044 281.948 182.349 280.766 183.981C279.471 183.34 278.568 182.218 277.552 181.26C274.258 178.155 271.08 174.927 267.782 171.825C264.293 168.542 260.857 165.207 257.393 161.899C253.566 158.244 249.761 154.565 245.933 150.913C240.442 145.674 234.931 140.457 229.499 135.158C225.848 131.597 222.139 128.096 218.45 124.575C217.841 123.994 217.248 123.377 216.561 122.901C215.094 121.882 214.912 120.488 215.091 118.866C216.238 108.455 218.68 98.3766 222.738 88.7057C224.834 83.7108 227.317 78.9121 230.092 74.2613C230.523 73.5377 230.805 73.2815 231.571 74.0266C237.539 79.8254 243.555 85.5754 249.561 91.3356C252.992 94.6265 256.411 97.9313 259.876 101.187C263.762 104.836 267.604 108.53 271.418 112.254C275.066 115.817 278.761 119.334 282.467 122.837C288.122 128.183 293.753 133.551 299.32 138.989C302.94 142.525 306.628 145.994 310.284 149.494C317.622 156.52 324.941 163.568 332.312 170.559C333.981 172.143 335.646 173.731 337.287 175.344C337.582 175.635 337.958 175.879 337.988 176.358Z" fill="#C4DFE4"/>
<path d="M257.856 44.4199C257.995 44.5382 258.175 44.6774 258.338 44.8336C261.915 48.2529 265.493 51.6709 269.065 55.0946C273.108 58.9706 277.143 62.8548 281.186 66.7301C284.592 69.9944 288.008 73.2474 291.415 76.5117C295.459 80.3864 299.493 84.2712 303.537 88.1459C306.998 91.4627 310.47 94.7694 313.933 98.0856C319.667 103.578 325.394 109.078 331.128 114.57C336.474 119.691 341.827 124.805 347.175 129.925C351.053 133.639 354.925 137.361 358.804 141.075C362.239 144.365 365.681 147.648 369.117 150.936C372.886 154.543 376.652 158.153 380.419 161.762C384.186 165.371 387.952 168.981 391.718 172.591C395.428 176.148 399.113 179.732 402.867 183.243C404.043 184.343 405.19 185.473 406.379 186.56C406.914 187.049 407.05 187.402 406.583 188.085C403.833 192.112 400.821 195.933 397.55 199.543C395.672 201.616 393.71 203.616 391.664 205.53C391.108 206.051 390.8 206.026 390.272 205.506C387.265 202.544 384.233 199.607 381.189 196.683C375.712 191.422 370.221 186.175 364.736 180.922C361.053 177.395 357.37 173.868 353.688 170.34C348.009 164.9 342.333 159.458 336.653 154.019C333.191 150.703 329.72 147.394 326.258 144.077C322.27 140.254 318.29 136.424 314.303 132.602C310.731 129.178 307.152 125.761 303.579 122.339C299.839 118.758 296.102 115.173 292.362 111.592C288.76 108.143 285.156 104.698 281.555 101.249C275.932 95.863 270.311 90.4741 264.689 85.0878C261.088 81.6387 257.49 78.1853 253.881 74.7451C249.439 70.5118 245.008 66.2671 240.519 62.0844C239.709 61.3292 239.832 60.8377 240.462 60.135C245.525 54.4975 250.99 49.2997 257.119 44.8209C257.331 44.6666 257.494 44.4256 257.856 44.4199Z" fill="#C4DFE4"/>
<path d="M424.523 123.456C423.842 123.18 423.409 122.681 422.95 122.239C419.744 119.151 416.566 116.035 413.357 112.949C407.747 107.555 402.123 102.174 396.502 96.7909C393.043 93.4779 389.57 90.1775 386.114 86.8613C381.907 82.826 377.736 78.752 373.499 74.7477C370.238 71.6661 366.987 68.5757 363.76 65.4594C356.201 58.1591 348.617 50.8841 341.001 43.6432C335.444 38.3606 329.879 33.0887 324.389 27.7358C323.241 26.617 321.977 25.6182 320.742 24.166C338.84 24.4734 355.567 28.9022 371.138 37.6579C386.805 46.468 399.406 58.512 408.882 73.7654C418.324 88.9631 423.499 105.533 424.523 123.456Z" fill="#C4DFE4"/>
<path d="M342.626 216.179C341.683 216.099 340.719 216.117 339.804 215.914C338.765 215.684 337.775 215.716 336.766 215.968C337.232 214.653 337.87 213.383 337.642 211.906C337.548 211.3 337.508 210.684 337.253 210.121C336.862 209.256 336.165 208.849 335.22 208.952C334.259 209.056 333.976 209.79 333.917 210.589C333.792 212.28 333.764 213.968 334.858 215.432C334.974 215.587 335.029 215.773 334.961 215.973C331.686 216.168 328.628 217.176 325.651 218.48C325.524 218.265 325.587 218.038 325.6 217.811C325.675 216.463 325.028 215.977 323.771 216.499C322.358 217.086 321.066 217.906 319.787 218.74C319.277 219.072 318.804 219.47 318.2 219.637C317.526 219.796 317.004 219.524 316.548 219.059C314.641 217.114 312.596 215.309 310.675 213.385C307.693 210.399 304.561 207.571 301.562 204.603C300.285 203.339 298.921 202.152 297.661 200.864C297.341 200.538 296.811 200.246 297.142 199.625C297.997 199.315 298.889 199.081 299.701 198.683C302.256 197.432 303.62 195.443 303.322 192.503C303.494 191.993 303.974 191.766 304.336 191.442C305.453 190.446 306.091 189.25 306.073 187.728C306.068 187.355 306.042 186.952 306.394 186.677C306.432 186.684 306.493 186.68 306.504 186.701C307.727 189.086 309.875 188.861 311.974 188.551C313.903 188.266 315.768 187.613 317.73 187.454C318.341 187.405 318.951 187.291 319.562 187.338C321.513 187.486 322.949 186.625 324.111 185.138C324.578 184.541 325.005 183.884 325.731 183.541C334.543 183.209 341.953 186.173 347.825 192.845C349.958 195.269 351.938 197.804 353.818 200.425C354.465 201.327 354.705 202.141 354.101 203.146C353.829 203.597 353.703 204.136 353.475 204.726C352.817 204.23 352.546 203.499 352.089 202.926C350.443 200.862 349.016 200.451 346.546 201.418C346.012 201.628 345.486 201.864 344.977 202.127C340.528 204.423 339.27 207.567 340.84 212.333C341.287 213.689 342.1 214.865 342.626 216.179Z" fill="#F1F1EC"/>
<path d="M297.142 199.623C298.11 201.306 299.682 202.422 301.029 203.749C301.218 203.935 301.459 204.067 301.65 204.251C304.259 206.773 306.863 209.302 309.469 211.827C311.912 214.192 314.364 216.547 316.791 218.928C317.182 219.312 317.588 219.493 318.117 219.435C317.574 220.537 316.851 220.884 315.762 220.449C314.022 219.754 312.307 218.998 310.536 218.38C310.428 218.342 310.323 218.293 310.216 218.253C308.288 217.529 307.768 217.779 307.294 219.66C305.566 218.773 303.654 218.775 301.794 218.526C301.53 218.156 301.751 217.789 301.807 217.424C302.012 216.071 301.974 214.741 301.296 213.516C300.868 212.745 300.239 212.1 299.281 212.29C298.308 212.484 297.99 213.338 297.948 214.215C297.887 215.507 297.751 216.819 298.294 218.065C298.415 218.342 298.529 218.64 298.344 218.944C297.492 218.672 296.701 219.045 295.905 219.214C294.355 219.545 292.792 219.856 291.366 220.6C290.454 218.967 289.009 217.966 287.349 217.222C287.043 217.085 286.674 217.043 286.53 216.669C287.384 215.02 287.179 213.464 286.02 212.064C285.443 211.367 285.353 210.681 285.555 209.833C286.669 205.134 288.859 200.966 291.797 196.969C292.951 199.264 294.912 199.735 297.142 199.623Z" fill="#DBD9CE"/>
<path d="M285.181 180.061C283.203 178.152 281.045 176.417 279.296 174.285C277.593 172.208 277.697 169.07 279.416 167.228C281.443 165.056 284.246 164.707 286.687 166.29C288.246 167.301 289.434 168.726 290.788 169.958C293.79 172.689 296.639 175.59 299.561 178.41C300.966 179.765 302.399 181.091 303.807 182.444C304.101 182.727 304.498 182.958 304.513 183.446C303.06 184.345 301.831 184.179 300.422 183.095C298.394 181.534 296.037 180.497 293.573 179.721C290.719 178.822 287.936 178.906 285.181 180.061Z" fill="#FEFEFE"/>
<path d="M355.223 192.478C354.991 189.526 354.392 186.665 353.148 183.955C352.267 182.035 351.022 180.407 349.299 179.192C347.852 178.172 346.699 178.743 346.525 180.488C346.346 181.096 344.738 182.423 344.434 182.392C343.162 181.672 342.082 179.645 340.661 179.355C340.044 179.229 340.296 179.131 339.79 178.659C343.974 174.997 348.125 174.975 352.193 178.714C355.919 182.139 358 186.535 359.338 191.331C359.434 191.677 359.376 191.98 359.153 192.298C358.522 193.204 357.937 194.142 357.334 195.068C356.712 194.139 355.773 193.467 355.223 192.478Z" fill="#DBD9CE"/>
<path d="M325.732 183.54C325.076 184.58 324.293 185.527 323.405 186.364C322.489 187.228 321.39 187.717 320.074 187.658C317.286 187.534 314.633 188.336 311.945 188.893C310.682 189.155 309.439 189.073 308.197 188.76C307.117 188.489 306.57 187.758 306.372 186.709C306.168 186.604 306.089 186.426 306.079 186.207C309.881 184.858 313.834 184.214 317.816 183.732C320.444 183.415 323.088 183.417 325.732 183.54Z" fill="#CCCBC3"/>
<path d="M284.022 186.96C281.849 190.773 281.992 194.721 283.374 198.722C283.698 199.66 284.07 200.607 284.591 201.443C285.067 202.206 284.991 202.833 284.651 203.572C284.011 204.962 283.393 206.363 283.071 207.872C282.997 208.216 283.044 208.76 282.571 208.751C282.185 208.744 281.767 208.48 281.594 208.041C281.3 207.295 280.92 206.565 280.744 205.791C279.26 199.279 279.639 192.938 282.603 186.859C282.717 186.626 282.902 186.427 283.054 186.213C283.408 186.42 283.747 186.649 284.022 186.96Z" fill="#DBD9CE"/>
<path d="M288.152 182.355C289.55 181.849 290.954 182.081 292.321 182.425C294.856 183.062 297.158 184.228 299.369 185.717C297.76 186.942 296.195 188.134 294.629 189.325C294.111 189.194 293.766 188.803 293.478 188.418C292.153 186.651 290.349 186.582 288.415 186.915C288.004 186.986 287.607 187.158 287.177 187.09C286.661 186.768 287.02 186.431 287.19 186.133C287.397 185.77 287.727 185.494 287.997 185.176C288.536 184.539 289.066 183.936 288.11 183.192C287.834 182.978 287.706 182.611 288.152 182.355Z" fill="#FEFEFE"/>
<path d="M351.789 189.244C352.247 190.451 352.255 191.711 352.294 193.244C351.611 192.494 351.078 191.929 350.567 191.342C347.608 187.949 344.165 185.181 340.1 183.207C339.901 183.11 339.732 182.95 339.549 182.819C339.421 182.329 339.813 182.146 340.11 181.949C341.029 181.338 342.013 180.876 343.142 180.814C344.012 181.189 344.609 181.905 345.273 182.534C347.083 184.244 348.783 186.071 350.696 187.673C351.203 188.098 351.552 188.632 351.789 189.244Z" fill="#EFDDD2"/>
<path d="M286.998 186.962C287.702 186.806 288.403 186.63 289.113 186.497C291.677 186.017 293.284 187.421 294.629 189.326C293.319 190.694 292.01 192.062 290.7 193.43C290.069 193.71 289.677 193.237 289.293 192.916C288.325 192.108 287.477 191.171 286.595 190.272C286.255 189.927 286.049 189.534 286.296 189.04C286.517 188.519 286.611 187.979 286.541 187.413C286.634 187.203 286.744 187.01 286.998 186.962Z" fill="#EFDDD2"/>
<path d="M286.295 189.04C286.323 189.227 286.282 189.484 286.39 189.59C287.762 190.943 288.864 192.6 290.7 193.43C289.267 195.252 287.899 197.121 286.666 199.345C285.179 195.774 284.755 192.442 286.295 189.04Z" fill="#D4A387"/>
<path d="M283.527 221.202C286.622 221.857 287.172 222.762 286.837 225.301C286.632 226.845 286.566 228.409 286.262 229.944C286.089 230.819 285.67 231.512 284.781 231.821C284.567 231.896 284.325 231.955 284.219 231.642C284.72 230.493 285.288 229.368 285.706 228.189C286.384 226.275 285.526 225.105 283.498 224.911C282.742 224.839 281.661 225.385 281.324 224.678C281.072 224.151 282.062 223.461 282.433 222.799C282.746 222.239 283.158 221.733 283.527 221.202Z" fill="#FDFDFD"/>
<path d="M351.789 189.243C349.098 186.665 346.405 184.088 343.716 181.507C343.554 181.351 343.423 181.162 343.276 180.989C343.957 180.08 344.844 180.199 345.767 180.487C346.019 180.484 346.273 180.742 346.526 180.487C346.785 180.956 347.099 181.366 347.547 181.682C350.161 183.527 351.149 186.289 351.789 189.243Z" fill="#D4A487"/>
<path d="M306.077 186.207C306.279 186.314 306.367 186.487 306.37 186.709C306.632 189.312 305.643 191.258 303.321 192.503C302.835 190.96 302.078 189.631 300.384 188.935C302.21 187.707 304.066 186.797 306.077 186.207Z" fill="#FEFEFD"/>
<path d="M343.282 181.031C342.43 181.092 344.067 180.625 343.277 180.99C341.888 181.301 340.544 181.706 339.549 182.819C338.638 182.493 337.728 182.167 336.729 181.81C337.693 180.599 338.933 179.334 340.033 178.412C341.847 179.632 341.497 179.743 343.282 181.031Z" fill="#FEFDFD"/>
<path d="M286.998 186.962C286.846 187.113 286.693 187.263 286.541 187.413C285.637 186.326 285.28 186.262 284.023 186.96C283.488 186.986 283.109 186.81 283.055 186.213C284.214 184.213 285.826 182.812 288.153 182.354C287.99 182.624 288.015 182.871 288.283 183.046C289.304 183.714 289.151 184.365 288.382 185.168C287.865 185.706 287.233 186.193 286.998 186.962Z" fill="#F1F1EC"/>
<path d="M355.922 227.728C354.582 228.166 353.235 228.585 351.904 229.05C351.399 229.227 351.058 229.161 350.85 228.65C350.776 227.651 350.703 226.653 350.629 225.655C351.971 226.003 353.414 226.013 354.614 226.84C355.048 227.138 355.486 227.432 355.922 227.728Z" fill="#F1F1EC"/>
<path d="M355.224 192.479C356.019 193.267 357.151 193.781 357.334 195.069C356.913 196.045 356.493 197.02 356.038 198.076C355.191 197.251 354.522 196.508 354.917 195.198C355.177 194.339 355.132 193.388 355.224 192.479Z" fill="#EEEEE9"/>
<path d="M282.517 228.059C282.169 228.835 281.835 229.577 281.446 230.443C280.816 227.99 280.849 227.916 282.517 228.059Z" fill="#5B9CA7"/>
<path d="M364.258 224.248C363.459 223.852 363.038 223.088 362.609 222.389C362.167 221.666 361.649 221.448 360.83 221.493C359.405 221.572 358.092 221.131 357.019 220.182C354.23 217.713 355.249 213.347 358.846 211.799C363.872 209.638 372.181 213.08 372.499 219.923C372.139 220.58 371.427 220.766 370.846 221.1C368.99 222.162 367.037 223.037 365.134 224.012C364.857 224.155 364.56 224.203 364.258 224.248Z" fill="#CCCBC3"/>
<path d="M364.259 224.247C367.006 222.806 369.753 221.364 372.5 219.923C372.503 222.905 370.858 225.037 368.138 225.528C366.626 225.801 365.379 225.198 364.259 224.247Z" fill="#77745E"/>
<path d="M367.912 209.73C367.936 208.373 369.351 206.993 370.705 207.007C371.922 207.02 373.238 208.354 373.218 209.556C373.192 211.137 371.992 212.321 370.428 212.309C369.005 212.297 367.887 211.151 367.912 209.73Z" fill="#CCCBC3"/>
<path d="M362.855 206.801C362.869 208.354 361.834 209.491 360.369 209.533C358.941 209.573 357.77 208.387 357.761 206.893C357.752 205.402 358.908 204.205 360.34 204.223C361.771 204.241 362.842 205.339 362.855 206.801Z" fill="#CCCBC3"/>
<path d="M378.081 216.247C379.445 216.642 380.216 218.029 379.864 219.456C379.52 220.852 378.202 221.752 376.858 221.511C375.394 221.248 374.613 219.998 374.871 218.334C375.812 217.441 376.844 216.687 378.081 216.247Z" fill="#77745E"/>
<path d="M307.294 219.659C307.048 219.058 306.967 218.473 307.486 217.96C308.063 217.39 308.771 217.45 309.427 217.687C311.37 218.394 313.342 219.055 315.204 219.94C316.415 220.516 317.275 220.345 318.118 219.434C319.885 218.378 321.644 217.307 323.423 216.272C324.159 215.844 324.955 215.675 325.634 216.376C326.284 217.045 326.054 217.774 325.651 218.479C323.465 219.741 321.235 220.928 319.139 222.348C318.474 222.798 318.178 223.25 318.387 224.035C318.514 224.515 318.625 225.01 318.647 225.504C318.751 227.81 319.725 229.385 321.891 230.49C323.702 231.413 325.432 232.616 326.833 234.194C327.753 235.231 327.731 236.091 326.559 236.838C325.211 237.699 323.676 238.042 322.13 238.341C321.718 238.421 321.306 238.512 320.895 238.597C319.738 238.588 318.582 238.579 317.425 238.569C316.907 238.434 316.386 238.311 315.872 238.161C314.145 237.657 313.572 236.621 314.272 234.951C314.861 233.544 315.601 232.196 316.343 230.859C316.624 230.353 316.665 229.955 316.534 229.377C316.144 227.664 315.835 225.926 315.609 224.183C315.512 223.435 315.245 223.01 314.554 222.738C312.492 221.928 310.495 220.952 308.374 220.284C307.966 220.157 307.6 219.96 307.294 219.659Z" fill="#46443C"/>
<path d="M334.961 215.972C333.618 214.578 333.033 211.324 333.812 209.513C334.082 208.884 334.599 208.608 335.264 208.569C336.135 208.518 336.829 208.829 337.319 209.566C338.44 211.253 338.162 214.489 336.767 215.967C336.165 216.192 335.563 216.186 334.961 215.972Z" fill="#46443C"/>
<path d="M298.344 218.943C297.418 217.375 297.409 215.661 297.617 213.941C297.731 212.999 298.114 212.094 299.185 211.915C300.247 211.739 301.032 212.317 301.523 213.225C302.452 214.939 302.494 216.718 301.793 218.525C300.517 219.965 299.768 220.056 298.344 218.943Z" fill="#46443C"/>
<path d="M266.342 212.359C266.332 213.746 265.23 214.854 263.876 214.838C262.459 214.821 261.326 213.614 261.339 212.137C261.352 210.706 262.404 209.568 263.719 209.561C265.108 209.554 266.353 210.881 266.342 212.359Z" fill="#77745E"/>
<path d="M229.175 112.99C231.241 112.89 232.733 114.048 234.107 115.346C236.893 117.98 239.617 120.68 242.379 123.339C246.299 127.115 250.201 130.909 254.166 134.637C257.713 137.971 261.237 141.326 264.72 144.727C268.065 147.992 271.501 151.164 274.846 154.43C276.984 156.517 277.262 159.394 275.683 161.758C273.945 164.36 270.113 164.927 267.689 162.914C266.806 162.181 265.964 161.396 265.137 160.601C260.604 156.245 256.113 151.845 251.546 147.526C248.121 144.287 244.722 141.021 241.314 137.765C237.574 134.19 233.843 130.605 230.095 127.04C228.456 125.482 226.782 123.955 225.234 122.312C223.528 120.5 223.199 118.345 224.178 116.038C224.968 114.175 226.946 112.988 229.175 112.99Z" fill="#FEFEFE"/>
<path d="M301.74 109.133C299.345 109.337 297.83 107.76 296.293 106.347C293.135 103.444 290.06 100.45 286.935 97.5102C283.336 94.1257 279.745 90.7336 276.105 87.394C273.65 85.141 271.169 82.9159 268.82 80.551C266.138 77.8508 266.325 74.2399 269.266 71.8516C271.116 70.3494 274.348 70.5657 276.355 72.4138C279.961 75.7338 283.526 79.0987 287.106 82.4459C291.89 86.9177 296.64 91.4255 301.475 95.841C302.949 97.187 304.406 98.5462 305.78 99.9852C308.551 102.888 307.165 107.876 303.332 109.003C302.798 109.16 302.268 109.102 301.74 109.133Z" fill="#FEFEFE"/>
<path d="M260.227 60.0108C263.186 60.0652 265.009 62.1563 265.006 64.8545C265.002 67.8032 262.986 69.7937 259.963 69.881C257.405 69.9543 255.193 67.5584 255.188 64.9791C255.183 62.1265 257.343 59.9969 260.227 60.0108Z" fill="#FEFEFE"/>
<path d="M360.857 41.4902C362.295 41.6945 363.607 42.0449 364.665 43.0456C366.334 44.6243 368.045 46.1587 369.703 47.7495C372.884 50.8013 376.024 53.8961 379.212 56.9422C381.925 59.5355 384.681 62.0832 387.416 64.6537C388.695 65.8567 389.717 67.1849 389.96 69.0223C390.348 71.9578 388.453 74.5257 385.652 75.1196C383.511 75.5738 381.732 74.7831 380.224 73.3474C376.116 69.436 372.065 65.4651 367.947 61.5645C364.247 58.0598 360.478 54.6241 356.922 50.9714C355.247 49.251 354.869 47.146 355.724 44.9064C356.468 42.9557 358.787 41.4915 360.857 41.4902Z" fill="#FEFEFE"/>
<path d="M396 76.8259C398.635 76.7399 400.902 78.7613 400.86 81.5772C400.817 84.524 398.739 86.4646 395.925 86.4336C392.997 86.4013 391.205 84.068 391.236 81.6158C391.271 78.8145 393.213 76.8253 396 76.8259Z" fill="#FEFEFE"/>
<path d="M334.448 195.061C332.713 194.983 330.8 194.401 329.217 192.982C326.926 190.927 327.235 188.046 329.892 186.482C331.851 185.329 333.996 185.178 336.124 185.653C338.247 186.126 340.323 189.357 340.002 191.333C339.63 193.624 337.566 195.107 334.448 195.061Z" fill="#46443C"/>
<path d="M323.469 235.015C321.533 235.606 319.768 235.891 317.948 235.765C317.282 235.719 317.097 235.495 317.409 234.81C318.835 231.678 318.818 231.668 321.54 233.606C322.127 234.026 322.706 234.458 323.469 235.015Z" fill="#D3A286"/>
<path d="M320.383 250.401C387.175 250.401 441.321 196.301 441.321 129.565C441.321 62.8296 387.175 8.72949 320.383 8.72949C253.59 8.72949 199.444 62.8296 199.444 129.565C199.444 196.301 253.59 250.401 320.383 250.401Z" stroke="black" stroke-width="17" stroke-miterlimit="10"/>
<path d="M105.238 248.473V209.24H0V172.15L76.0422 11.0957H121.404L45.3614 172.15H105.238V110.333H145.486V172.15H167.755V209.24H145.486V248.473H105.238Z" fill="#101015"/>
<path d="M577.484 248.473V209.24H472.245V172.15L548.287 11.0957H593.649L517.607 172.15H577.484V110.333H617.731V172.15H640V209.24H617.731V248.473H577.484Z" fill="#101015"/>
</svg>
