<svg width="149" height="32" viewBox="0 0 149 32" fill="none" xmlns="http://www.w3.org/2000/svg">
<g clip-path="url(#clip0_59_54442)">
<path d="M11.553 14.9191V20.9698C11.553 22.0498 10.7767 22.9257 9.81933 22.9241L7.00064 22.9183L7.01546 15.9144V15.688C7.03933 13.9362 8.46514 12.8199 9.78146 13.2851C10.1009 13.3987 10.3873 13.6094 10.6244 13.8761L11.553 14.9191Z" fill="url(#paint0_linear_59_54442)"/>
<path d="M18.4392 15.3669V9.03641C18.4392 7.95553 19.2163 7.07962 20.1737 7.08209L22.9924 7.08703L22.9776 14.3717V14.5972C22.9529 16.3498 21.5271 17.4661 20.2116 17.0002C19.8913 16.8874 19.6057 16.6767 19.3686 16.4099L18.4392 15.3669Z" fill="url(#paint1_linear_59_54442)"/>
<path d="M22.9727 14.1158V19.4C22.9858 21.9462 20.6347 23.6692 18.785 22.5924C18.5602 22.4615 18.3577 22.2878 18.175 22.0911L12.4306 15.9038L11.553 14.9192L10.6244 13.8762C10.3874 13.6095 10.1009 13.3987 9.78147 13.2851C8.46515 12.82 7.03935 13.9363 7.01547 15.6881V15.6297L7.01382 11.1917V10.4623C7.01382 7.71115 9.74607 6.16352 11.6197 7.85604L19.1554 16.0882C19.3365 16.2866 19.5522 16.4537 19.7983 16.5624C21.2126 17.1913 22.9727 15.9721 22.9727 14.1158Z" fill="url(#paint2_linear_59_54442)"/>
<path d="M22.9727 19.0534V19.4C22.9858 21.9462 20.6347 23.6692 18.785 22.5924C18.5602 22.4615 18.3577 22.2878 18.175 22.0911L12.4306 15.9038L11.553 14.9192L10.6244 13.8762C10.3874 13.6095 10.1009 13.3987 9.78147 13.2851C8.46515 12.82 7.03935 13.9363 7.01547 15.6881V15.6297L7.01382 11.1917V11.1291C7.35793 9.51976 9.18629 8.81509 10.3297 10.0532L19.6543 20.1409C20.801 21.3823 22.6351 20.6694 22.9727 19.0534Z" fill="url(#paint3_linear_59_54442)"/>
<path d="M22.9092 28.5079C22.9092 28.0214 22.9718 27.5505 23.0887 27.1019H4.58778C3.65261 27.1019 2.88619 26.3363 2.88619 25.3994V4.58776C2.88619 3.65259 3.65261 2.88619 4.58778 2.88619H25.4003C26.3363 2.88619 27.1027 3.65259 27.1027 4.58776V23.1224C27.5382 23.0129 27.9934 22.9545 28.4626 22.9545C28.992 22.9545 29.5032 23.0294 29.9881 23.1685V3.63366C29.9881 1.63489 28.3531 -1.52588e-05 26.3536 -1.52588e-05H3.63449C1.6349 -1.52588e-05 0 1.63489 0 3.63366V26.3544C0 28.3523 1.6349 29.988 3.63449 29.988H23.1101C22.98 29.5163 22.9092 29.0208 22.9092 28.5079Z" fill="url(#paint4_linear_59_54442)"/>
<path d="M31.9547 28.5079C31.9547 30.4367 30.3914 32 28.4626 32C26.5338 32 24.9697 30.4367 24.9697 28.5079C24.9697 26.5791 26.5338 25.015 28.4626 25.015C30.3914 25.015 31.9547 26.5791 31.9547 28.5079Z" fill="url(#paint5_linear_59_54442)"/>
</g>
<path d="M37.5211 13.8926L41.1923 17.5661V23.3817H37.5211V13.8926ZM52.9409 6.08282V22.7828C52.9409 23.1257 52.6614 23.4028 52.3185 23.4028C52.1541 23.4028 51.9967 23.3394 51.8793 23.222L37.5211 10.2731V6.60893C37.5211 6.26601 37.7983 5.98886 38.1412 5.98886H38.1741C38.3385 5.98886 38.4982 6.05463 38.6133 6.16973L49.2674 15.4146V6.08282H52.9409Z" fill="url(#paint6_linear_59_54442)"/>
<path d="M63.8771 9.76806C61.1079 9.76806 58.8578 12.0206 58.8578 14.7874C58.8578 17.5567 61.1079 19.8092 63.8771 19.8092C66.644 19.8092 68.8965 17.5567 68.8965 14.7874C68.8965 12.0206 66.644 9.76806 63.8771 9.76806ZM72.4925 14.7874C72.4925 19.5391 68.6264 23.4028 63.8771 23.4028C59.1255 23.4028 55.2594 19.5391 55.2594 14.7874C55.2594 10.0382 59.1255 6.17206 63.8771 6.17206C68.6264 6.17206 72.4925 10.0382 72.4925 14.7874Z" fill="url(#paint7_linear_59_54442)"/>
<path d="M91.7668 16.5091L91.4756 17.4111C90.9142 19.1398 89.8408 20.6266 88.3728 21.7117C86.8719 22.818 85.0939 23.4028 83.2243 23.4028C81.1291 23.4028 79.1068 22.6465 77.5284 21.2725C75.9665 19.9125 74.94 18.0405 74.6417 16.0018C74.5807 15.5837 74.5478 15.1562 74.5478 14.7287C74.5478 14.3177 74.5783 13.9067 74.6347 13.5097C74.9236 11.4569 75.943 9.57313 77.5096 8.20143C79.0904 6.81799 81.1197 6.05462 83.2219 6.05462C85.1408 6.05462 86.9588 6.66765 88.4808 7.8303C89.9535 8.95303 91.0457 10.5455 91.5554 12.3165L91.8091 13.1973H88.0064L87.8279 12.7769C87.0387 10.9237 85.2324 9.72815 83.2219 9.72815C80.8496 9.72815 78.7874 11.4146 78.3176 13.7399C78.2542 14.064 78.2189 14.3952 78.2189 14.7287C78.2189 15.074 78.2566 15.4216 78.327 15.7575C78.8109 18.0593 80.8684 19.7317 83.2219 19.7317C85.1291 19.7317 86.8977 18.6183 87.7292 16.8967L87.9171 16.5091H91.7668Z" fill="url(#paint8_linear_59_54442)"/>
<path d="M103.055 9.76806C100.286 9.76806 98.0355 12.0206 98.0355 14.7874C98.0355 17.5567 100.286 19.8092 103.055 19.8092C105.822 19.8092 108.074 17.5567 108.074 14.7874C108.074 12.0206 105.822 9.76806 103.055 9.76806ZM111.67 14.7874C111.67 19.5391 107.804 23.4028 103.055 23.4028C98.3032 23.4028 94.4371 19.5391 94.4371 14.7874C94.4371 10.0382 98.3032 6.17206 103.055 6.17206C107.804 6.17206 111.67 10.0382 111.67 14.7874Z" fill="url(#paint9_linear_59_54442)"/>
<path d="M130.012 14.7898C130.012 15.2173 129.979 15.6448 129.918 16.0605C129.352 19.9125 126.259 22.9307 122.395 23.3982L122.353 23.4028H114.301V12.3517H117.975V19.7317H122.106C124.152 19.4146 125.805 17.8479 126.233 15.8186C126.303 15.4804 126.339 15.1351 126.339 14.7898C126.339 14.4563 126.306 14.1227 126.24 13.801C126 12.6078 125.329 11.5414 124.352 10.8015C123.75 10.3435 123.064 10.0358 122.334 9.88787C122.085 9.83619 121.829 9.80564 121.571 9.79155H114.301V6.111L121.998 6.13917C123.877 6.28245 125.667 7.03642 127.086 8.29302C128.631 9.66002 129.639 11.5344 129.925 13.5661C129.982 13.9654 130.012 14.3788 130.012 14.7898Z" fill="url(#paint10_linear_59_54442)"/>
<path d="M136.295 19.6776H143.335C144.025 19.4991 144.518 18.8673 144.518 18.1486C144.518 17.4111 144.009 16.7745 143.297 16.6101H136.295V19.6776ZM148.197 18.1486C148.197 19.0411 147.969 19.9243 147.537 20.6994C146.609 22.367 144.85 23.4028 142.942 23.4028C142.743 23.4028 142.543 23.3935 142.346 23.37C142.146 23.3935 141.946 23.4028 141.749 23.4028H132.622V12.8567H142.061C142.799 12.7088 143.327 12.0675 143.327 11.3112C143.327 10.5995 142.841 9.97008 142.16 9.78687H136.295V9.79155H132.622V6.05462H141.749C143.626 6.05462 145.371 7.06461 146.308 8.68998C146.322 8.71581 146.336 8.74165 146.35 8.76748C146.78 9.54259 147.006 10.421 147.006 11.3112C147.006 12.2085 146.776 13.094 146.339 13.8738C146.332 13.8879 146.325 13.9019 146.315 13.9137L146.313 13.9208L146.31 13.9231V13.9254C146.285 13.9677 146.261 14.01 146.235 14.0523C146.301 14.104 146.364 14.158 146.426 14.2144C146.869 14.6066 147.241 15.0693 147.529 15.586C147.966 16.3658 148.197 17.2513 148.197 18.1486Z" fill="url(#paint11_linear_59_54442)"/>
<defs>
<linearGradient id="paint0_linear_59_54442" x1="8.70881" y1="18.4499" x2="-0.349016" y2="23.2575" gradientUnits="userSpaceOnUse">
<stop stop-color="#4351E8"/>
<stop offset="1" stop-color="#2A1EA5"/>
</linearGradient>
<linearGradient id="paint1_linear_59_54442" x1="21.0323" y1="11.8436" x2="30.9302" y2="15.3147" gradientUnits="userSpaceOnUse">
<stop stop-color="#4351E8"/>
<stop offset="1" stop-color="#2A1EA5"/>
</linearGradient>
<linearGradient id="paint2_linear_59_54442" x1="9.30895" y1="15.4782" x2="26.6077" y2="14.1134" gradientUnits="userSpaceOnUse">
<stop stop-color="#4351E8"/>
<stop offset="1" stop-color="#353495"/>
<stop offset="1" stop-color="#2A1EA5"/>
</linearGradient>
<linearGradient id="paint3_linear_59_54442" x1="2.53307" y1="10.1932" x2="21.6321" y2="19.8129" gradientUnits="userSpaceOnUse">
<stop stop-color="#4351E8"/>
<stop offset="1" stop-color="#2A1EA5"/>
</linearGradient>
<linearGradient id="paint4_linear_59_54442" x1="6.02593" y1="6.06872" x2="33.3661" y2="33.2781" gradientUnits="userSpaceOnUse">
<stop stop-color="#4351E8"/>
<stop offset="1" stop-color="#2A1EA5"/>
</linearGradient>
<linearGradient id="paint5_linear_59_54442" x1="33.1311" y1="31.2706" x2="23.9283" y2="25.824" gradientUnits="userSpaceOnUse">
<stop stop-color="#ED0029"/>
<stop offset="1" stop-color="#F43760"/>
</linearGradient>
<linearGradient id="paint6_linear_59_54442" x1="45.2298" y1="0.126269" x2="45.2298" y2="28.2846" gradientUnits="userSpaceOnUse">
<stop stop-color="#4351E8"/>
<stop offset="1" stop-color="#2A1EA5"/>
</linearGradient>
<linearGradient id="paint7_linear_59_54442" x1="63.8771" y1="0.126263" x2="63.8771" y2="28.2846" gradientUnits="userSpaceOnUse">
<stop stop-color="#4351E8"/>
<stop offset="1" stop-color="#2A1EA5"/>
</linearGradient>
<linearGradient id="paint8_linear_59_54442" x1="83.1796" y1="0.126259" x2="83.1796" y2="28.2846" gradientUnits="userSpaceOnUse">
<stop stop-color="#4351E8"/>
<stop offset="1" stop-color="#2A1EA5"/>
</linearGradient>
<linearGradient id="paint9_linear_59_54442" x1="103.055" y1="0.126263" x2="103.055" y2="28.2846" gradientUnits="userSpaceOnUse">
<stop stop-color="#4351E8"/>
<stop offset="1" stop-color="#2A1EA5"/>
</linearGradient>
<linearGradient id="paint10_linear_59_54442" x1="122.155" y1="0.126273" x2="122.155" y2="28.2846" gradientUnits="userSpaceOnUse">
<stop stop-color="#4351E8"/>
<stop offset="1" stop-color="#2A1EA5"/>
</linearGradient>
<linearGradient id="paint11_linear_59_54442" x1="140.41" y1="0.126259" x2="140.41" y2="28.2846" gradientUnits="userSpaceOnUse">
<stop stop-color="#4351E8"/>
<stop offset="1" stop-color="#2A1EA5"/>
</linearGradient>
<clipPath id="clip0_59_54442">
<rect width="32" height="32" fill="white"/>
</clipPath>
</defs>
</svg>
