<svg width="102" height="16" viewBox="0 0 102 16" fill="none" xmlns="http://www.w3.org/2000/svg">
<path d="M0 7.26194L3.3731 10.6372V15.9806H0V7.26194ZM14.1678 0.0863237V15.4303C14.1678 15.7454 13.911 16 13.5959 16C13.4448 16 13.3003 15.9417 13.1924 15.8338L0 3.93633V0.569721C0 0.254642 0.254662 0 0.569742 0H0.599963C0.751029 0 0.897762 0.0604305 1.00351 0.166177L10.7926 8.66038V0.0863237H14.1678Z" fill="url(#paint0_linear_191_11475)"/>
<path d="M24.2159 3.47234C21.6715 3.47234 19.6041 5.54194 19.6041 8.08416C19.6041 10.6285 21.6715 12.6981 24.2159 12.6981C26.7581 12.6981 28.8277 10.6285 28.8277 8.08416C28.8277 5.54194 26.7581 3.47234 24.2159 3.47234ZM32.1317 8.08416C32.1317 12.45 28.5795 16 24.2159 16C19.8501 16 16.2979 12.45 16.2979 8.08416C16.2979 3.72052 19.8501 0.168327 24.2159 0.168327C28.5795 0.168327 32.1317 3.72052 32.1317 8.08416Z" fill="url(#paint1_linear_191_11475)"/>
<path d="M49.841 9.66603L49.5734 10.4947C49.0576 12.0831 48.0714 13.4491 46.7226 14.4462C45.3436 15.4626 43.7099 16 41.9921 16C40.0671 16 38.209 15.3051 36.7588 14.0426C35.3236 12.7931 34.3805 11.0731 34.1065 9.19989C34.0504 8.81576 34.0201 8.42298 34.0201 8.03021C34.0201 7.65255 34.0482 7.27489 34.1 6.91018C34.3654 5.02402 35.302 3.29323 36.7415 2.03291C38.1939 0.761805 40.0584 0.06042 41.9899 0.06042C43.7531 0.06042 45.4234 0.623671 46.8219 1.69192C48.175 2.72348 49.1785 4.18666 49.6468 5.81386L49.8799 6.62314H46.3859L46.2219 6.23685C45.4968 4.53413 43.8372 3.43567 41.9899 3.43567C39.8102 3.43567 37.9155 4.98517 37.4839 7.12167C37.4256 7.41948 37.3932 7.72376 37.3932 8.03021C37.3932 8.34745 37.4278 8.66684 37.4925 8.97545C37.9371 11.0904 39.8275 12.6269 41.9899 12.6269C43.7423 12.6269 45.3673 11.604 46.1313 10.0221L46.3039 9.66603H49.841Z" fill="url(#paint2_linear_191_11475)"/>
<path d="M60.2126 3.47234C57.6682 3.47234 55.6008 5.54194 55.6008 8.08416C55.6008 10.6285 57.6682 12.6981 60.2126 12.6981C62.7548 12.6981 64.8244 10.6285 64.8244 8.08416C64.8244 5.54194 62.7548 3.47234 60.2126 3.47234ZM68.1284 8.08416C68.1284 12.45 64.5762 16 60.2126 16C55.8468 16 52.2946 12.45 52.2946 8.08416C52.2946 3.72052 55.8468 0.168327 60.2126 0.168327C64.5762 0.168327 68.1284 3.72052 68.1284 8.08416Z" fill="url(#paint3_linear_191_11475)"/>
<path d="M84.9809 8.08633C84.9809 8.4791 84.9507 8.87187 84.8946 9.25385C84.3745 12.7931 81.5323 15.5662 77.9823 15.9957L77.9434 16H70.5455V5.84623H73.9208V12.6269H77.7168C79.5965 12.3356 81.1158 10.8962 81.5086 9.03157C81.5733 8.72081 81.6057 8.40357 81.6057 8.08633C81.6057 7.77989 81.5755 7.47343 81.515 7.17777C81.2949 6.08146 80.6777 5.10169 79.78 4.4219C79.2275 4.00107 78.5973 3.71837 77.9262 3.58241C77.6974 3.53494 77.4622 3.50687 77.2248 3.49392H70.5455V0.112225L77.6175 0.138104C79.344 0.269748 80.9885 0.962496 82.2919 2.11707C83.712 3.37307 84.6378 5.09522 84.9011 6.96196C84.9529 7.32883 84.9809 7.70867 84.9809 8.08633Z" fill="url(#paint4_linear_191_11475)"/>
<path d="M84.9809 8.08633C84.9809 8.4791 84.9507 8.87187 84.8946 9.25385C84.3745 12.7931 81.5323 15.5662 77.9823 15.9957L77.9434 16H70.5455V5.84623H73.9208V12.6269H77.7168C79.5965 12.3356 81.1158 10.8962 81.5086 9.03157C81.5733 8.72081 81.6057 8.40357 81.6057 8.08633C81.6057 7.77989 81.5755 7.47343 81.515 7.17777C81.2949 6.08146 80.6777 5.10169 79.78 4.4219C79.2275 4.00107 78.5973 3.71837 77.9262 3.58241C77.6974 3.53494 77.4622 3.50687 77.2248 3.49392H70.5455V0.112225L77.6175 0.138104C79.344 0.269748 80.9885 0.962496 82.2919 2.11707C83.712 3.37307 84.6378 5.09522 84.9011 6.96196C84.9529 7.32883 84.9809 7.70867 84.9809 8.08633Z" fill="url(#paint5_linear_191_11475)"/>
<path d="M90.7538 12.5773H97.2215C97.856 12.4133 98.3092 11.8328 98.3092 11.1724C98.3092 10.4948 97.8409 9.90991 97.187 9.75885H90.7538V12.5773ZM101.689 11.1724C101.689 11.9925 101.479 12.8039 101.082 13.5161C100.23 15.0483 98.6135 16 96.8612 16C96.6777 16 96.4943 15.9914 96.313 15.9698C96.1296 15.9914 95.9461 16 95.7648 16H87.3785V6.31021H96.0519C96.7295 6.17426 97.215 5.5851 97.215 4.8902C97.215 4.2363 96.7683 3.65795 96.1425 3.48962H90.7538V3.49392H87.3785V0.06042H95.7648C97.4891 0.06042 99.0926 0.988399 99.9537 2.48179C99.9666 2.50553 99.9796 2.52926 99.9925 2.553C100.387 3.26517 100.595 4.07229 100.595 4.8902C100.595 5.71459 100.383 6.5282 99.9817 7.24468C99.9753 7.25763 99.9688 7.27056 99.9602 7.28135L99.958 7.28784L99.9558 7.28999V7.29214C99.9321 7.33099 99.9105 7.36984 99.8868 7.40869C99.9472 7.45616 100.005 7.50581 100.062 7.5576C100.469 7.918 100.81 8.34313 101.076 8.81791C101.477 9.53439 101.689 10.348 101.689 11.1724Z" fill="url(#paint6_linear_191_11475)"/>
<defs>
<linearGradient id="paint0_linear_191_11475" x1="7.08282" y1="-5.38657" x2="7.08282" y2="20.4854" gradientUnits="userSpaceOnUse">
<stop stop-color="#4351E8"/>
<stop offset="1" stop-color="#2A1EA5"/>
</linearGradient>
<linearGradient id="paint1_linear_191_11475" x1="24.2159" y1="-5.38657" x2="24.2159" y2="20.4854" gradientUnits="userSpaceOnUse">
<stop stop-color="#4351E8"/>
<stop offset="1" stop-color="#2A1EA5"/>
</linearGradient>
<linearGradient id="paint2_linear_191_11475" x1="41.9511" y1="-5.38658" x2="41.9511" y2="20.4854" gradientUnits="userSpaceOnUse">
<stop stop-color="#4351E8"/>
<stop offset="1" stop-color="#2A1EA5"/>
</linearGradient>
<linearGradient id="paint3_linear_191_11475" x1="60.2126" y1="-5.38657" x2="60.2126" y2="20.4854" gradientUnits="userSpaceOnUse">
<stop stop-color="#4351E8"/>
<stop offset="1" stop-color="#2A1EA5"/>
</linearGradient>
<linearGradient id="paint4_linear_191_11475" x1="77.7622" y1="-5.38656" x2="77.7622" y2="20.4854" gradientUnits="userSpaceOnUse">
<stop stop-color="#4351E8"/>
<stop offset="1" stop-color="#2A1EA5"/>
</linearGradient>
<linearGradient id="paint5_linear_191_11475" x1="77.7622" y1="-5.38656" x2="77.7622" y2="20.4854" gradientUnits="userSpaceOnUse">
<stop stop-color="#4351E8"/>
<stop offset="1" stop-color="#2A1EA5"/>
</linearGradient>
<linearGradient id="paint6_linear_191_11475" x1="94.5347" y1="-5.38658" x2="94.5347" y2="20.4854" gradientUnits="userSpaceOnUse">
<stop stop-color="#4351E8"/>
<stop offset="1" stop-color="#2A1EA5"/>
</linearGradient>
</defs>
</svg>
